<svg xmlns="http://www.w3.org/2000/svg" viewBox="0 0 24 24" fill="#9ca3af">
  <path d="M12 .5C5.73.5.5 5.73.5 12c0 5.08 3.29 9.38 7.86 10.9.58.1.79-.25.79-.56v-2c-3.2.7-3.87-1.54-3.87-1.54-.53-1.34-1.29-1.7-1.29-1.7-1.05-.72.08-.7.08-.7 1.16.08 1.77 1.19 1.77 1.19 1.03 1.77 2.7 1.26 3.36.96.1-.75.4-1.26.73-1.55-2.55-.3-5.23-1.28-5.23-5.7 0-1.26.45-2.3 1.19-3.1-.12-.3-.52-1.52.11-3.17 0 0 .97-.31 3.18 1.18a11 11 0 015.8 0c2.2-1.5 3.18-1.18 3.18-1.18.63 1.65.23 2.87.11 3.17.74.8 1.19 1.84 1.19 3.1 0 4.43-2.68 5.4-5.24 5.7.41.35.78 1.04.78 2.1v3.12c0 .31.21.67.8.56A11.5 11.5 0 0023.5 12C23.5 5.73 18.27.5 12 .5z"/>
</svg>
